<svg width="364" height="308" viewBox="0 0 364 308" fill="none" xmlns="http://www.w3.org/2000/svg">
<path opacity="0.56" d="M27.391 139.948C21.3981 106.04 117.785 38.3917 166.727 8.80572C187.703 4.48418 238.143 -3.0619 272.104 1.32613C314.554 6.81116 357.503 139.948 362.497 158.896C367.491 177.845 362.497 231.698 309.06 249.649C255.623 267.6 266.61 299.014 235.147 305.496C203.684 311.979 129.771 308.488 41.3746 263.112C-47.0215 217.736 34.8822 182.332 27.391 139.948Z" fill="#ECECEC"/>
<mask id="mask0" mask-type="alpha" maskUnits="userSpaceOnUse" x="52" y="8" width="256" height="256">
<rect x="52" y="8" width="256" height="256" fill="#C4C4C4"/>
</mask>
<g mask="url(#mask0)">
<rect x="86.2678" y="81.9083" width="188" height="162.229" rx="8" fill="#E99404"/>
<rect x="92.5669" y="70.6455" width="103.928" height="16.0539" rx="8" fill="#E99404"/>
<rect x="86.2678" y="101.342" width="177.438" height="142.796" rx="8" fill="#FFC800"/>
<path d="M188.085 26.1417H172.453L181.386 46.8428L188.085 26.1417Z" fill="#E99404"/>
<path d="M271.191 49.5469L257.617 41.7942L255.106 64.1999L271.191 49.5469Z" fill="#E99404"/>
<path d="M111.018 41.7733L97.6758 49.9182L116.086 62.9328L111.018 41.7733Z" fill="#E99404"/>
</g>
</svg>
