<svg width="147" height="116" viewBox="0 0 147 116" fill="none" xmlns="http://www.w3.org/2000/svg">
<g opacity="0.36">
<circle cx="12.2105" cy="12.2105" r="12.2105" fill="#004C94"/>
<circle cx="12.2105" cy="42.7368" r="12.2105" fill="#004C94"/>
<circle cx="12.2105" cy="73.2631" r="12.2105" fill="#004C94"/>
<circle cx="12.2105" cy="103.789" r="12.2105" fill="#004C94"/>
<circle cx="42.7368" cy="12.2105" r="12.2105" fill="#004C94"/>
<circle cx="42.7368" cy="42.7368" r="12.2105" fill="#004C94"/>
<circle cx="42.7368" cy="73.2631" r="12.2105" fill="#004C94"/>
<circle cx="42.7368" cy="103.789" r="12.2105" fill="#004C94"/>
<circle cx="73.2631" cy="12.2105" r="12.2105" fill="#004C94"/>
<circle cx="73.2631" cy="42.7368" r="12.2105" fill="#004C94"/>
<circle cx="73.2631" cy="73.2631" r="12.2105" fill="#004C94"/>
<circle cx="73.2631" cy="103.789" r="12.2105" fill="#004C94"/>
<circle cx="103.789" cy="12.2105" r="12.2105" fill="#004C94"/>
<circle cx="103.789" cy="42.7368" r="12.2105" fill="#004C94"/>
<circle cx="103.789" cy="73.2631" r="12.2105" fill="#004C94"/>
<circle cx="103.789" cy="103.789" r="12.2105" fill="#004C94"/>
<circle cx="134.316" cy="12.2105" r="12.2105" fill="#004C94"/>
<circle cx="134.316" cy="42.7368" r="12.2105" fill="#004C94"/>
<circle cx="134.316" cy="73.2631" r="12.2105" fill="#004C94"/>
<circle cx="134.316" cy="103.789" r="12.2105" fill="#004C94"/>
</g>
</svg>
