<svg xmlns="http://www.w3.org/2000/svg" viewBox="0 0 144.29 180"><defs><style>.cls-1{fill:#fff;}</style></defs><g id="Layer_2" data-name="Layer 2"><g id="Layer_1-2" data-name="Layer 1"><g id="_180_putih" data-name="180 putih"><path class="cls-1" d="M133.61,39,41.78.27a3.4,3.4,0,0,0-3.17.27l-37,23.64h0l-.05,0a3.29,3.29,0,0,0-.41.33l-.1.1a2.67,2.67,0,0,0-.38.44.56.56,0,0,1-.05.08,3.15,3.15,0,0,0-.28.51l0,0v0a3.45,3.45,0,0,0-.18.57c0,.05,0,.1,0,.14a2.78,2.78,0,0,0-.06.58v78.3a17.41,17.41,0,0,0,10.67,16.08L81,151.07l19.7,27.5.1.11a3.88,3.88,0,0,0,.39.42,1.2,1.2,0,0,0,.21.17,2.9,2.9,0,0,0,.41.27l.22.13a5.17,5.17,0,0,0,.51.18l.19.06a3.14,3.14,0,0,0,.75.09h0a4.07,4.07,0,0,0,.6-.06l.17,0a2.79,2.79,0,0,0,.47-.14l.11,0a3,3,0,0,0,.47-.25L142.69,156a3.42,3.42,0,0,0,1.6-2.89V55A17.4,17.4,0,0,0,133.61,39ZM40.78,7.27l90.18,38a11,11,0,0,1,2.21,1.27l-31.32,19.7a17.5,17.5,0,0,0-5.59-3.77l-85.51-36ZM84.57,145.14l-71.24-30a10.58,10.58,0,0,1-6.49-9.77V32.21L93.61,68.77a10.57,10.57,0,0,1,6.48,9.77v87.39L86,146.3A3.29,3.29,0,0,0,84.57,145.14Zm52.87,6.05-30.51,19.19V78.54a17.37,17.37,0,0,0-1.3-6.6l31.42-19.77a10.9,10.9,0,0,1,.39,2.86Z"/><path class="cls-1" d="M86.35,78.06,69.12,70.81a3.42,3.42,0,0,0-3.9.9L54.65,83.77,43,60.69a3.44,3.44,0,0,0-1.73-1.61L24.06,51.82A3.42,3.42,0,0,0,19.31,55v47.67a3.44,3.44,0,0,0,2.09,3.16l17.25,7.26a3.41,3.41,0,0,0,3.22-.3,3.45,3.45,0,0,0,1.53-2.85V104l7.49,13.4a3.38,3.38,0,0,0,2.47,1.71,3.41,3.41,0,0,0,2.87-.89l8.12-7.7v11.07a3.43,3.43,0,0,0,2.09,3.15l17.25,7.27a3.43,3.43,0,0,0,4.75-3.16V81.22A3.44,3.44,0,0,0,86.35,78.06ZM81.6,123.74l-10.41-4.38V102.61a3.42,3.42,0,0,0-5.77-2.48l-10.7,10.13L43,89.23a3.42,3.42,0,0,0-6.4,1.67v13.86l-10.41-4.38V60.13L37.47,64.9,50.82,91.38a3.42,3.42,0,0,0,5.63.72l12.29-14L81.6,83.49Z"/></g></g></g></svg>