<svg xmlns="http://www.w3.org/2000/svg" viewBox="0 0 153.9 192"><defs><style>.cls-1{fill:#fff;}</style></defs><g id="Layer_2" data-name="Layer 2"><g id="Layer_1-2" data-name="Layer 1"><g id="_192_putih" data-name="192 putih"><path class="cls-1" d="M142.52,41.56,44.56.29a3.65,3.65,0,0,0-3.38.28L1.69,25.79h0l-.06,0a3.83,3.83,0,0,0-.44.36l-.11.1a3.55,3.55,0,0,0-.4.47l-.05.09a3.55,3.55,0,0,0-.3.54s0,0,0,.05v0a4.44,4.44,0,0,0-.19.62l0,.15a4.07,4.07,0,0,0-.06.61v83.53a18.56,18.56,0,0,0,11.38,17.14l75.05,31.62,21,29.34.1.11a3.56,3.56,0,0,0,.42.45,1.92,1.92,0,0,0,.22.18,3,3,0,0,0,.43.29c.09.05.16.1.25.14a3.13,3.13,0,0,0,.54.19l.21.07a4.07,4.07,0,0,0,.79.09h0a3.69,3.69,0,0,0,.65-.07l.17,0a2.91,2.91,0,0,0,.5-.16l.12,0a3.4,3.4,0,0,0,.5-.26l39.84-25.07a3.65,3.65,0,0,0,1.7-3.09V58.7A18.55,18.55,0,0,0,142.52,41.56Zm-99-33.8,96.2,40.52A11.58,11.58,0,0,1,142,49.63l-33.4,21a18.65,18.65,0,0,0-6-4L11.47,28.2ZM90.21,154.81l-76-32A11.27,11.27,0,0,1,7.3,112.38v-78l92.55,39a11.28,11.28,0,0,1,6.91,10.42V177l-15-20.94A3.69,3.69,0,0,0,90.21,154.81Zm56.4,6.46-32.55,20.47v-98a18.67,18.67,0,0,0-1.38-7l33.5-21.08a11.07,11.07,0,0,1,.43,3.05Z"/><path class="cls-1" d="M92.1,83.27,73.73,75.53a3.64,3.64,0,0,0-4.16,1L58.29,89.36,45.88,64.74A3.59,3.59,0,0,0,44,63L25.66,55.28a3.62,3.62,0,0,0-3.43.32,3.65,3.65,0,0,0-1.63,3V109.5a3.66,3.66,0,0,0,2.23,3.36l18.4,7.75a3.64,3.64,0,0,0,5.06-3.36V111l8,14.3a3.65,3.65,0,0,0,5.7.87l8.66-8.21v11.81a3.66,3.66,0,0,0,2.23,3.36l18.4,7.75a3.64,3.64,0,0,0,5.06-3.36V86.63A3.63,3.63,0,0,0,92.1,83.27ZM87,132l-11.1-4.68V109.45a3.65,3.65,0,0,0-6.16-2.65L58.36,117.62,45.83,95.18A3.65,3.65,0,0,0,39,97v14.79L27.9,107.07V64.14L40,69.22,54.21,97.48a3.65,3.65,0,0,0,6,.76l13.11-15L87,89.05Z"/></g></g></g></svg>