<svg xmlns="http://www.w3.org/2000/svg" viewBox="0 0 25.65 32"><defs><style>.cls-1{fill:#004c94;}</style></defs><g id="Layer_2" data-name="Layer 2"><g id="Layer_1-2" data-name="Layer 1"><g id="_32_biru" data-name="32 biru"><path class="cls-1" d="M23.75,6.93,7.43.05A.61.61,0,0,0,6.86.1L.28,4.3h0a.21.21,0,0,0-.08.06h0l-.07.08v0l0,.09h0a.42.42,0,0,0,0,.1v0a.31.31,0,0,0,0,.1H0V18.73a3.09,3.09,0,0,0,1.9,2.86l12.5,5.27,3.51,4.89,0,0,.06.07,0,0,.07.05,0,0,.09,0h0l.13,0h.14l.08,0h0l.09,0,6.64-4.18a.63.63,0,0,0,.28-.52V9.78A3.07,3.07,0,0,0,23.75,6.93ZM7.25,1.29l16,6.76a1.87,1.87,0,0,1,.39.22l-5.56,3.5a3.14,3.14,0,0,0-1-.67L1.91,4.7ZM15,25.8,2.37,20.47a1.89,1.89,0,0,1-1.15-1.74v-13l15.42,6.5A1.86,1.86,0,0,1,17.79,14V29.5L15.29,26A.64.64,0,0,0,15,25.8Zm9.39,1.08L19,30.29V14a3.05,3.05,0,0,0-.23-1.17l5.58-3.52a1.79,1.79,0,0,1,.07.51Z"/><path class="cls-1" d="M15.35,13.88l-3.06-1.29a.62.62,0,0,0-.7.16L9.71,14.89l-2.06-4.1a.67.67,0,0,0-.31-.29L4.28,9.21a.6.6,0,0,0-.58.06.62.62,0,0,0-.27.5v8.48a.62.62,0,0,0,.38.56L6.87,20.1a.61.61,0,0,0,.57-.05.64.64,0,0,0,.28-.51v-1l1.33,2.38A.61.61,0,0,0,10,21l1.44-1.36v2a.6.6,0,0,0,.37.56l3.07,1.29a.46.46,0,0,0,.23.05.59.59,0,0,0,.34-.1.6.6,0,0,0,.27-.51V14.44A.59.59,0,0,0,15.35,13.88ZM14.51,22l-1.85-.78v-3a.61.61,0,0,0-1-.44l-1.9,1.8L7.64,15.86A.62.62,0,0,0,7,15.57a.61.61,0,0,0-.45.59v2.46l-1.85-.77V10.69l2,.85L9,16.25a.64.64,0,0,0,.47.33.63.63,0,0,0,.54-.21l2.18-2.49,2.29,1Z"/></g></g></g></svg>