<svg xmlns="http://www.w3.org/2000/svg" viewBox="0 0 216.43 270"><defs><style>.cls-1{fill:#fff;}</style></defs><g id="Layer_2" data-name="Layer 2"><g id="Layer_1-2" data-name="Layer 1"><g id="_320_putih" data-name="320 putih"><path class="cls-1" d="M200.42,58.44,62.67.4a5.15,5.15,0,0,0-4.76.41L2.37,36.27l0,0-.07.05a6,6,0,0,0-.63.5L1.49,37a6,6,0,0,0-.56.67l-.08.12a6.93,6.93,0,0,0-.41.76.43.43,0,0,0,0,.07,0,0,0,0,1,0,0,5.13,5.13,0,0,0-.26.87,1.55,1.55,0,0,0,0,.21,4.92,4.92,0,0,0-.09.86V158a26.11,26.11,0,0,0,16,24.11L121.54,226.6l29.56,41.26c0,.06.1.1.15.16a4.9,4.9,0,0,0,.89.89,6.49,6.49,0,0,0,.61.41c.12.06.23.13.35.18a4.57,4.57,0,0,0,.76.28,2.46,2.46,0,0,0,.29.09,5.12,5.12,0,0,0,1.12.13h0a5.73,5.73,0,0,0,.92-.09l.24-.05a5.83,5.83,0,0,0,.71-.22,1,1,0,0,1,.16-.06,6.85,6.85,0,0,0,.71-.37L214,234a5.14,5.14,0,0,0,2.4-4.35V82.55A26.11,26.11,0,0,0,200.42,58.44ZM61.16,10.91l135.28,57a15.86,15.86,0,0,1,3.31,1.89l-47,29.56a26.25,26.25,0,0,0-8.39-5.66l-128.26-54Zm65.7,206.8L20,172.68A15.87,15.87,0,0,1,10.26,158V48.32l130.15,54.83a15.87,15.87,0,0,1,9.73,14.66V248.9L129,219.45A5.08,5.08,0,0,0,126.86,217.71Zm79.31,9.07-45.77,28.8V117.81a26.17,26.17,0,0,0-2-9.91l47.12-29.64a16,16,0,0,1,.6,4.29Z"/><path class="cls-1" d="M129.52,117.09l-25.84-10.88a5.13,5.13,0,0,0-5.85,1.35L82,125.66,64.52,91a5.13,5.13,0,0,0-2.59-2.42L36.09,77.73A5.13,5.13,0,0,0,29,82.46V154a5.12,5.12,0,0,0,3.14,4.73L58,169.61a5.13,5.13,0,0,0,7.12-4.73v-8.82l11.23,20.1a5.14,5.14,0,0,0,8,1.23l12.19-11.55v16.6a5.11,5.11,0,0,0,3.14,4.73l25.87,10.9a5.05,5.05,0,0,0,2,.4,5.21,5.21,0,0,0,2.84-.85,5.15,5.15,0,0,0,2.29-4.28V121.82A5.15,5.15,0,0,0,129.52,117.09Zm-7.12,68.52L106.79,179V153.92a5.13,5.13,0,0,0-8.66-3.73L82.07,165.4,64.45,133.85a5.13,5.13,0,0,0-9.61,2.5v20.8l-15.61-6.58V90.19l17,7.15,20,39.74a5.13,5.13,0,0,0,8.44,1.07l18.44-21,19.29,8.12Z"/></g></g></g></svg>